<?xml version="1.0" encoding="UTF-8" standalone="no"?>
<!--
  ~ Copyright 2017 Kaiserpfalz EDV-Service, Roland T. Lichti
  ~
  ~ Licensed under the Apache License, Version 2.0 (the "License");
  ~ you may not use this file except in compliance with the License.
  ~ You may obtain a copy of the License at
  ~
  ~     http://www.apache.org/licenses/LICENSE-2.0
  ~
  ~ Unless required by applicable law or agreed to in writing, software
  ~ distributed under the License is distributed on an "AS IS" BASIS,
  ~ WITHOUT WARRANTIES OR CONDITIONS OF ANY KIND, either express or implied.
  ~ See the License for the specific language governing permissions and
  ~ limitations under the License.
  -->

<!DOCTYPE svg PUBLIC "-//W3C//DTD SVG 1.0//EN" "http://www.w3.org/TR/2001/PR-SVG-20010719/DTD/svg10.dtd">
<svg width="33cm" height="23cm" viewBox="354 -35 649 460" xmlns="http://www.w3.org/2000/svg">
  <g>
    <ellipse style="fill: #ffffff" cx="380" cy="-16" rx="6" ry="6"/>
    <ellipse style="fill: none; fill-opacity:0; stroke-width: 2; stroke: #000000" cx="380" cy="-16" rx="6" ry="6"/>
    <line style="fill: none; fill-opacity:0; stroke-width: 2; stroke: #000000" x1="356" y1="-4" x2="404" y2="-4"/>
    <line style="fill: none; fill-opacity:0; stroke-width: 2; stroke: #000000" x1="380" y1="-10" x2="380" y2="20"/>
    <line style="fill: none; fill-opacity:0; stroke-width: 2; stroke: #000000" x1="380" y1="20" x2="356" y2="46"/>
    <line style="fill: none; fill-opacity:0; stroke-width: 2; stroke: #000000" x1="380" y1="20" x2="404" y2="46"/>
      <text font-size="12.7998"
            style="fill: #000000;text-anchor:middle;font-family:sans-serif;font-style:normal;font-weight:normal"
            left="380" y="69.9">
          <tspan left="380" y="69.9">User</tspan>
    </text>
  </g>
  <g>
      <rect style="fill: #ffffff" left="540" y="-20" width="91.05" height="70"/>
      <rect style="fill: none; fill-opacity:0; stroke-width: 2; stroke: #000000" left="540" y="-20" width="91.05"
            height="70"/>
      <rect style="fill: #ffffff" left="520" y="-6" width="40" height="14"/>
      <rect style="fill: none; fill-opacity:0; stroke-width: 2; stroke: #000000" left="520" y="-6" width="40"
            height="14"/>
      <rect style="fill: #ffffff" left="520" y="22" width="40" height="14"/>
      <rect style="fill: none; fill-opacity:0; stroke-width: 2; stroke: #000000" left="520" y="22" width="40"
            height="14"/>
      <text font-size="12.7998"
            style="fill: #000000;text-anchor:start;font-family:sans-serif;font-style:normal;font-weight:normal"
            left="568" y="5.9">
          <tspan left="568" y="5.9">Web GUI</tspan>
    </text>
  </g>
  <g>
      <rect style="fill: #ffffff" left="380" y="80" width="159.7" height="70"/>
      <rect style="fill: none; fill-opacity:0; stroke-width: 2; stroke: #000000" left="380" y="80" width="159.7"
            height="70"/>
      <rect style="fill: #ffffff" left="360" y="94" width="40" height="14"/>
      <rect style="fill: none; fill-opacity:0; stroke-width: 2; stroke: #000000" left="360" y="94" width="40"
            height="14"/>
      <rect style="fill: #ffffff" left="360" y="122" width="40" height="14"/>
      <rect style="fill: none; fill-opacity:0; stroke-width: 2; stroke: #000000" left="360" y="122" width="40"
            height="14"/>
      <text font-size="12.7998"
            style="fill: #000000;text-anchor:start;font-family:sans-serif;font-style:normal;font-weight:normal"
            left="408" y="105.9">
          <tspan left="408" y="105.9">LibreOffice</tspan>
          <tspan left="408" y="121.9">Apache OpenOffice</tspan>
    </text>
  </g>
  <g>
      <rect style="fill: #ffffff" left="840" y="60" width="93.75" height="70"/>
      <rect style="fill: none; fill-opacity:0; stroke-width: 2; stroke: #000000" left="840" y="60" width="93.75"
            height="70"/>
      <rect style="fill: #ffffff" left="820" y="74" width="40" height="14"/>
      <rect style="fill: none; fill-opacity:0; stroke-width: 2; stroke: #000000" left="820" y="74" width="40"
            height="14"/>
      <rect style="fill: #ffffff" left="820" y="102" width="40" height="14"/>
      <rect style="fill: none; fill-opacity:0; stroke-width: 2; stroke: #000000" left="820" y="102" width="40"
            height="14"/>
      <text font-size="12.7998"
            style="fill: #000000;text-anchor:start;font-family:sans-serif;font-style:normal;font-weight:normal"
            left="868" y="85.9">
          <tspan left="868" y="85.9">KP Office</tspan>
          <tspan left="868" y="101.9">Core</tspan>
    </text>
  </g>
  <g>
      <rect style="fill: #ffffff" left="840" y="140" width="93.75" height="70"/>
      <rect style="fill: none; fill-opacity:0; stroke-width: 2; stroke: #000000" left="840" y="140" width="93.75"
            height="70"/>
      <rect style="fill: #ffffff" left="820" y="154" width="40" height="14"/>
      <rect style="fill: none; fill-opacity:0; stroke-width: 2; stroke: #000000" left="820" y="154" width="40"
            height="14"/>
      <rect style="fill: #ffffff" left="820" y="182" width="40" height="14"/>
      <rect style="fill: none; fill-opacity:0; stroke-width: 2; stroke: #000000" left="820" y="182" width="40"
            height="14"/>
      <text font-size="12.7998"
            style="fill: #000000;text-anchor:start;font-family:sans-serif;font-style:normal;font-weight:normal"
            left="868" y="165.9">
          <tspan left="868" y="165.9">KP Office</tspan>
          <tspan left="868" y="181.9">Contacts</tspan>
    </text>
  </g>
  <g>
      <rect style="fill: #ffffff" left="840" y="220" width="93.75" height="70"/>
      <rect style="fill: none; fill-opacity:0; stroke-width: 2; stroke: #000000" left="840" y="220" width="93.75"
            height="70"/>
      <rect style="fill: #ffffff" left="820" y="234" width="40" height="14"/>
      <rect style="fill: none; fill-opacity:0; stroke-width: 2; stroke: #000000" left="820" y="234" width="40"
            height="14"/>
      <rect style="fill: #ffffff" left="820" y="262" width="40" height="14"/>
      <rect style="fill: none; fill-opacity:0; stroke-width: 2; stroke: #000000" left="820" y="262" width="40"
            height="14"/>
      <text font-size="12.7998"
            style="fill: #000000;text-anchor:start;font-family:sans-serif;font-style:normal;font-weight:normal"
            left="868" y="245.9">
          <tspan left="868" y="245.9">KP Office</tspan>
          <tspan left="868" y="261.9">Projects</tspan>
    </text>
  </g>
  <g>
      <rect style="fill: #ffffff" left="500" y="200" width="111.35" height="70"/>
      <rect style="fill: none; fill-opacity:0; stroke-width: 2; stroke: #000000" left="500" y="200" width="111.35"
            height="70"/>
      <rect style="fill: #ffffff" left="480" y="214" width="40" height="14"/>
      <rect style="fill: none; fill-opacity:0; stroke-width: 2; stroke: #000000" left="480" y="214" width="40"
            height="14"/>
      <rect style="fill: #ffffff" left="480" y="242" width="40" height="14"/>
      <rect style="fill: none; fill-opacity:0; stroke-width: 2; stroke: #000000" left="480" y="242" width="40"
            height="14"/>
      <text font-size="12.7998"
            style="fill: #000000;text-anchor:start;font-family:sans-serif;font-style:normal;font-weight:normal"
            left="528" y="225.9">
          <tspan left="528" y="225.9">KP Office</tspan>
          <tspan left="528" y="241.9">WebService</tspan>
          <tspan left="528" y="257.9">SOAP</tspan>
    </text>
  </g>
  <g>
      <rect style="fill: #ffffff" left="700" y="200" width="93.75" height="70"/>
      <rect style="fill: none; fill-opacity:0; stroke-width: 2; stroke: #000000" left="700" y="200" width="93.75"
            height="70"/>
      <rect style="fill: #ffffff" left="680" y="214" width="40" height="14"/>
      <rect style="fill: none; fill-opacity:0; stroke-width: 2; stroke: #000000" left="680" y="214" width="40"
            height="14"/>
      <rect style="fill: #ffffff" left="680" y="242" width="40" height="14"/>
      <rect style="fill: none; fill-opacity:0; stroke-width: 2; stroke: #000000" left="680" y="242" width="40"
            height="14"/>
      <text font-size="12.7998"
            style="fill: #000000;text-anchor:start;font-family:sans-serif;font-style:normal;font-weight:normal"
            left="728" y="225.9">
          <tspan left="728" y="225.9">KP Office</tspan>
          <tspan left="728" y="241.9">ESB</tspan>
          <tspan left="728" y="257.9">(FUSE)</tspan>
    </text>
  </g>
  <g>
    <line style="fill: none; fill-opacity:0; stroke-width: 2; stroke: #000000" x1="663.311" y1="224.238" x2="612.356" y2="234.123"/>
    <polygon style="fill: #000000" points="664.263,229.146 679.018,221.19 662.359,219.329 "/>
    <polygon style="fill: none; fill-opacity:0; stroke-width: 2; stroke: #000000" points="664.263,229.146 679.018,221.19 662.359,219.329 "/>
  </g>
  <g>
    <line style="fill: none; fill-opacity:0; stroke-width: 2; stroke: #000000" x1="629.356" y1="249" x2="680" y2="249"/>
    <polygon style="fill: #000000" points="629.356,244 613.356,249 629.356,254 "/>
    <polygon style="fill: none; fill-opacity:0; stroke-width: 2; stroke: #000000" points="629.356,244 613.356,249 629.356,254 "/>
  </g>
  <g>
    <line style="fill: none; fill-opacity:0; stroke-width: 2; stroke: #000000" x1="811.758" y1="95.8685" x2="754.595" y2="198.992"/>
    <polygon style="fill: #000000" points="816.131,98.2926 819.515,81.8746 807.385,93.4444 "/>
    <polygon style="fill: none; fill-opacity:0; stroke-width: 2; stroke: #000000" points="816.131,98.2926 819.515,81.8746 807.385,93.4444 "/>
  </g>
  <g>
    <line style="fill: none; fill-opacity:0; stroke-width: 2; stroke: #000000" x1="807.644" y1="172.676" x2="779.713" y2="199.07"/>
    <polygon style="fill: #000000" points="811.078,176.31 819.273,161.687 804.21,169.042 "/>
    <polygon style="fill: none; fill-opacity:0; stroke-width: 2; stroke: #000000" points="811.078,176.31 819.273,161.687 804.21,169.042 "/>
  </g>
  <g>
    <line style="fill: none; fill-opacity:0; stroke-width: 2; stroke: #000000" x1="803.062" y1="242.455" x2="794.741" y2="243.17"/>
    <polygon style="fill: #000000" points="803.49,247.437 819.004,241.086 802.634,237.473 "/>
    <polygon style="fill: none; fill-opacity:0; stroke-width: 2; stroke: #000000" points="803.49,247.437 819.004,241.086 802.634,237.473 "/>
  </g>
  <g>
    <line style="fill: none; fill-opacity:0; stroke-width: 2; stroke: #000000" x1="811.362" y1="267.145" x2="820" y2="269"/>
    <polygon style="fill: #000000" points="812.412,262.256 795.718,263.785 810.312,272.033 "/>
    <polygon style="fill: none; fill-opacity:0; stroke-width: 2; stroke: #000000" points="812.412,262.256 795.718,263.785 810.312,272.033 "/>
  </g>
  <g>
    <line style="fill: none; fill-opacity:0; stroke-width: 2; stroke: #000000" x1="809.031" y1="196.067" x2="820" y2="189"/>
    <polygon style="fill: #000000" points="806.323,191.864 795.581,204.733 811.739,200.27 "/>
    <polygon style="fill: none; fill-opacity:0; stroke-width: 2; stroke: #000000" points="806.323,191.864 795.581,204.733 811.739,200.27 "/>
  </g>
  <g>
    <line style="fill: none; fill-opacity:0; stroke-width: 2; stroke: #000000" x1="769.541" y1="184.858" x2="820" y2="109"/>
    <polygon style="fill: #000000" points="765.378,182.088 760.68,198.18 773.704,187.627 "/>
    <polygon style="fill: none; fill-opacity:0; stroke-width: 2; stroke: #000000" points="765.378,182.088 760.68,198.18 773.704,187.627 "/>
  </g>
  <g>
    <line style="fill: none; fill-opacity:0; stroke-width: 2; stroke: #000000" x1="473.2" y1="205.419" x2="449.437" y2="150.967"/>
    <polygon style="fill: #000000" points="468.618,207.419 479.6,220.083 477.783,203.419 "/>
    <polygon style="fill: none; fill-opacity:0; stroke-width: 2; stroke: #000000" points="468.618,207.419 479.6,220.083 477.783,203.419 "/>
  </g>
  <g>
    <line style="fill: none; fill-opacity:0; stroke-width: 2; stroke: #000000" x1="452.601" y1="167.109" x2="480" y2="249"/>
    <polygon style="fill: #000000" points="457.342,165.522 447.524,151.936 447.859,168.695 "/>
    <polygon style="fill: none; fill-opacity:0; stroke-width: 2; stroke: #000000" points="457.342,165.522 447.524,151.936 447.859,168.695 "/>
  </g>
  <g>
    <line style="fill: none; fill-opacity:0; stroke-width: 2; stroke: #000000" x1="671.294" y1="206.398" x2="578.64" y2="50.9961"/>
    <polygon style="fill: #000000" points="667,208.959 679.488,220.141 675.589,203.838 "/>
    <polygon style="fill: none; fill-opacity:0; stroke-width: 2; stroke: #000000" points="667,208.959 679.488,220.141 675.589,203.838 "/>
  </g>
  <g>
    <line style="fill: none; fill-opacity:0; stroke-width: 2; stroke: #000000" x1="584.82" y1="66.0819" x2="680" y2="249"/>
    <polygon style="fill: #000000" points="589.256,63.774 577.435,51.8884 580.385,68.3899 "/>
    <polygon style="fill: none; fill-opacity:0; stroke-width: 2; stroke: #000000" points="589.256,63.774 577.435,51.8884 580.385,68.3899 "/>
  </g>
  <g>
    <line style="fill: none; fill-opacity:0; stroke-width: 2; stroke: #000000" x1="503.154" y1="3.28619" x2="405.994" y2="16.4723"/>
    <polygon style="fill: #000000" points="503.827,8.24077 519.009,1.13448 502.482,-1.6684 "/>
    <polygon style="fill: none; fill-opacity:0; stroke-width: 2; stroke: #000000" points="503.827,8.24077 519.009,1.13448 502.482,-1.6684 "/>
  </g>
  <g>
    <line style="fill: none; fill-opacity:0; stroke-width: 2; stroke: #000000" x1="422.959" y1="22.7616" x2="520" y2="29"/>
    <polygon style="fill: #000000" points="423.279,17.7719 406.992,21.7352 422.638,27.7513 "/>
    <polygon style="fill: none; fill-opacity:0; stroke-width: 2; stroke: #000000" points="423.279,17.7719 406.992,21.7352 422.638,27.7513 "/>
  </g>
  <g>
    <line style="fill: none; fill-opacity:0; stroke-width: 2; stroke: #000000" x1="380" y1="63" x2="380" y2="74.9902"/>
    <polygon style="fill: #000000" points="375,63 380,79 385,63 "/>
    <polygon style="fill: none; fill-opacity:0; stroke-width: 2; stroke: #000000" points="375,63 380,79 385,63 "/>
  </g>
  <g>
    <line style="fill: none; fill-opacity:0; stroke-width: 2; stroke: #000000" x1="421.9" y1="35.7421" x2="539.7" y2="80"/>
    <polygon style="fill: #000000" points="423.659,31.0615 406.922,30.1149 420.142,40.4227 "/>
    <polygon style="fill: none; fill-opacity:0; stroke-width: 2; stroke: #000000" points="423.659,31.0615 406.922,30.1149 420.142,40.4227 "/>
  </g>
  <g>
    <ellipse style="fill: #ffffff" cx="400" cy="224" rx="6" ry="6"/>
    <ellipse style="fill: none; fill-opacity:0; stroke-width: 2; stroke: #000000" cx="400" cy="224" rx="6" ry="6"/>
    <line style="fill: none; fill-opacity:0; stroke-width: 2; stroke: #000000" x1="376" y1="236" x2="424" y2="236"/>
    <line style="fill: none; fill-opacity:0; stroke-width: 2; stroke: #000000" x1="400" y1="230" x2="400" y2="260"/>
    <line style="fill: none; fill-opacity:0; stroke-width: 2; stroke: #000000" x1="400" y1="260" x2="376" y2="286"/>
    <line style="fill: none; fill-opacity:0; stroke-width: 2; stroke: #000000" x1="400" y1="260" x2="424" y2="286"/>
      <text font-size="12.7998"
            style="fill: #000000;text-anchor:middle;font-family:sans-serif;font-style:normal;font-weight:normal"
            left="400" y="309.9">
          <tspan left="400" y="309.9">Fremd-</tspan>
          <tspan left="400" y="325.9">systeme</tspan>
          <tspan left="400" y="341.9">(SOAP)</tspan>
    </text>
  </g>
  <g>
    <line style="fill: none; fill-opacity:0; stroke-width: 2; stroke: #000000" x1="464.719" y1="228.449" x2="427.08" y2="246.798"/>
    <polygon style="fill: #000000" points="466.91,232.944 479.101,221.438 462.528,223.955 "/>
    <polygon style="fill: none; fill-opacity:0; stroke-width: 2; stroke: #000000" points="466.91,232.944 479.101,221.438 462.528,223.955 "/>
  </g>
  <g>
    <line style="fill: none; fill-opacity:0; stroke-width: 2; stroke: #000000" x1="443.922" y1="253.961" x2="480" y2="249"/>
    <polygon style="fill: #000000" points="443.241,249.007 428.071,256.14 444.603,258.914 "/>
    <polygon style="fill: none; fill-opacity:0; stroke-width: 2; stroke: #000000" points="443.241,249.007 428.071,256.14 444.603,258.914 "/>
  </g>
  <g>
    <line style="fill: none; fill-opacity:0; stroke-width: 2; stroke: #000000" x1="665.819" y1="230.375" x2="527.081" y2="322.096"/>
    <polygon style="fill: #000000" points="668.576,234.546 679.166,221.551 663.061,226.204 "/>
    <polygon style="fill: none; fill-opacity:0; stroke-width: 2; stroke: #000000" points="668.576,234.546 679.166,221.551 663.061,226.204 "/>
  </g>
  <g>
    <line style="fill: none; fill-opacity:0; stroke-width: 2; stroke: #000000" x1="542.253" y1="318.639" x2="680" y2="249"/>
    <polygon style="fill: #000000" points="539.997,314.177 527.974,325.858 544.509,323.101 "/>
    <polygon style="fill: none; fill-opacity:0; stroke-width: 2; stroke: #000000" points="539.997,314.177 527.974,325.858 544.509,323.101 "/>
  </g>
  <g>
    <ellipse style="fill: #ffffff" cx="500" cy="304" rx="6" ry="6"/>
    <ellipse style="fill: none; fill-opacity:0; stroke-width: 2; stroke: #000000" cx="500" cy="304" rx="6" ry="6"/>
    <line style="fill: none; fill-opacity:0; stroke-width: 2; stroke: #000000" x1="476" y1="316" x2="524" y2="316"/>
    <line style="fill: none; fill-opacity:0; stroke-width: 2; stroke: #000000" x1="500" y1="310" x2="500" y2="340"/>
    <line style="fill: none; fill-opacity:0; stroke-width: 2; stroke: #000000" x1="500" y1="340" x2="476" y2="366"/>
    <line style="fill: none; fill-opacity:0; stroke-width: 2; stroke: #000000" x1="500" y1="340" x2="524" y2="366"/>
      <text font-size="12.7998"
            style="fill: #000000;text-anchor:middle;font-family:sans-serif;font-style:normal;font-weight:normal"
            left="500" y="389.9">
          <tspan left="500" y="389.9">Fremd-</tspan>
          <tspan left="500" y="405.9">systeme</tspan>
          <tspan left="500" y="421.9">(Broker)</tspan>
    </text>
  </g>
    <text font-size="12.7998"
          style="fill: #000000;text-anchor:start;font-family:sans-serif;font-style:normal;font-weight:normal" left="400"
          y="260">
        <tspan left="400" y="260"></tspan>
  </text>
  <g>
    <ellipse style="fill: #ffffff" cx="600" cy="304" rx="6" ry="6"/>
    <ellipse style="fill: none; fill-opacity:0; stroke-width: 2; stroke: #000000" cx="600" cy="304" rx="6" ry="6"/>
    <line style="fill: none; fill-opacity:0; stroke-width: 2; stroke: #000000" x1="576" y1="316" x2="624" y2="316"/>
    <line style="fill: none; fill-opacity:0; stroke-width: 2; stroke: #000000" x1="600" y1="310" x2="600" y2="340"/>
    <line style="fill: none; fill-opacity:0; stroke-width: 2; stroke: #000000" x1="600" y1="340" x2="576" y2="366"/>
    <line style="fill: none; fill-opacity:0; stroke-width: 2; stroke: #000000" x1="600" y1="340" x2="624" y2="366"/>
      <text font-size="12.7998"
            style="fill: #000000;text-anchor:middle;font-family:sans-serif;font-style:normal;font-weight:normal"
            left="600" y="389.9">
          <tspan left="600" y="389.9">Fremd-</tspan>
          <tspan left="600" y="405.9">systeme</tspan>
          <tspan left="600" y="421.9">(File)</tspan>
    </text>
  </g>
  <g>
    <line style="fill: none; fill-opacity:0; stroke-width: 2; stroke: #000000" x1="670.515" y1="235.108" x2="627.08" y2="299.718"/>
    <polygon style="fill: #000000" points="674.665,237.898 679.442,221.83 666.366,232.319 "/>
    <polygon style="fill: none; fill-opacity:0; stroke-width: 2; stroke: #000000" points="674.665,237.898 679.442,221.83 666.366,232.319 "/>
  </g>
  <g>
    <line style="fill: none; fill-opacity:0; stroke-width: 2; stroke: #000000" x1="638.304" y1="296.429" x2="680" y2="249"/>
    <polygon style="fill: #000000" points="634.549,293.127 627.74,308.445 642.06,299.73 "/>
    <polygon style="fill: none; fill-opacity:0; stroke-width: 2; stroke: #000000" points="634.549,293.127 627.74,308.445 642.06,299.73 "/>
  </g>
  <g>
      <rect style="fill: #ffffff" left="840" y="340" width="93.75" height="70"/>
      <rect style="fill: none; fill-opacity:0; stroke-width: 2; stroke: #000000" left="840" y="340" width="93.75"
            height="70"/>
      <rect style="fill: #ffffff" left="820" y="354" width="40" height="14"/>
      <rect style="fill: none; fill-opacity:0; stroke-width: 2; stroke: #000000" left="820" y="354" width="40"
            height="14"/>
      <rect style="fill: #ffffff" left="820" y="382" width="40" height="14"/>
      <rect style="fill: none; fill-opacity:0; stroke-width: 2; stroke: #000000" left="820" y="382" width="40"
            height="14"/>
      <text font-size="12.7998"
            style="fill: #000000;text-anchor:start;font-family:sans-serif;font-style:normal;font-weight:normal"
            left="868" y="365.9">
          <tspan left="868" y="365.9">KP Office</tspan>
          <tspan left="868" y="381.9">...</tspan>
    </text>
  </g>
  <line style="fill: none; fill-opacity:0; stroke-width: 2; stroke-dasharray: 4; stroke: #000000" x1="880" y1="300" x2="880" y2="320"/>
  <g>
    <line style="fill: none; fill-opacity:0; stroke-width: 2; stroke: #000000" x1="809.131" y1="347.928" x2="745.166" y2="270.998"/>
    <polygon style="fill: #000000" points="805.287,351.125 819.361,360.231 812.976,344.732 "/>
    <polygon style="fill: none; fill-opacity:0; stroke-width: 2; stroke: #000000" points="805.287,351.125 819.361,360.231 812.976,344.732 "/>
  </g>
  <g>
    <line style="fill: none; fill-opacity:0; stroke-width: 2; stroke: #000000" x1="750.887" y1="285.098" x2="820" y2="389"/>
    <polygon style="fill: #000000" points="755.05,282.329 742.025,271.776 746.723,287.867 "/>
    <polygon style="fill: none; fill-opacity:0; stroke-width: 2; stroke: #000000" points="755.05,282.329 742.025,271.776 746.723,287.867 "/>
  </g>
  <g>
    <polyline style="fill: none; fill-opacity:0; stroke-width: 2; stroke-dasharray: 8; stroke: #000000" points="933.75,255 960,255 960,189 941.446,189 "/>
    <polyline style="fill: none; fill-opacity:0; stroke-width: 2; stroke: #000000" points="954.093,184 938.093,189 954.093,194 "/>
  </g>
  <g>
    <polyline style="fill: none; fill-opacity:0; stroke-width: 2; stroke-dasharray: 8; stroke: #000000" points="933.75,175 960,175 960,109 941.446,109 "/>
    <polyline style="fill: none; fill-opacity:0; stroke-width: 2; stroke: #000000" points="954.093,104 938.093,109 954.093,114 "/>
  </g>
  <g>
    <polyline style="fill: none; fill-opacity:0; stroke-width: 2; stroke-dasharray: 8; stroke: #000000" points="933.75,255 980,255 980,109 941.439,109 "/>
    <polyline style="fill: none; fill-opacity:0; stroke-width: 2; stroke: #000000" points="954.086,104 938.086,109 954.086,114 "/>
  </g>
  <g>
    <polyline style="fill: none; fill-opacity:0; stroke-width: 2; stroke-dasharray: 8; stroke: #000000" points="934.746,389 1000,389 1000,109 941.451,109 "/>
    <polyline style="fill: none; fill-opacity:0; stroke-width: 2; stroke: #000000" points="954.098,104 938.098,109 954.098,114 "/>
  </g>
  <g>
    <polyline style="fill: none; fill-opacity:0; stroke-width: 2; stroke-dasharray: 8; stroke: #000000" points="934.733,389 980,389 980,269 941.439,269 "/>
    <polyline style="fill: none; fill-opacity:0; stroke-width: 2; stroke: #000000" points="954.086,264 938.086,269 954.086,274 "/>
  </g>
</svg>
